<svg xmlns:xlink="http://www.w3.org/1999/xlink" xmlns="http://www.w3.org/2000/svg" viewBox="0 0 350 267.41845371289423" preserveAspectRatio="xMidYMid meet" class="css-grg60t" id="bhhfcaed" width="350"  height="267.41845371289423" ><defs id="SvgjsDefs1019"><linearGradient id="SvgjsLinearGradient1024"><stop id="SvgjsStop1025" stop-color="#905e26" offset="0"></stop><stop id="SvgjsStop1026" stop-color="#f5ec9b" offset="0.5"></stop><stop id="SvgjsStop1027" stop-color="#905e26" offset="1"></stop></linearGradient><linearGradient id="SvgjsLinearGradient1028"><stop id="SvgjsStop1029" stop-color="#905e26" offset="0"></stop><stop id="SvgjsStop1030" stop-color="#f5ec9b" offset="0.5"></stop><stop id="SvgjsStop1031" stop-color="#905e26" offset="1"></stop></linearGradient><linearGradient id="SvgjsLinearGradient1024"><stop id="SvgjsStop1025" stop-color="#905e26" offset="0"></stop><stop id="SvgjsStop1026" stop-color="#f5ec9b" offset="0.5"></stop><stop id="SvgjsStop1027" stop-color="#905e26" offset="1"></stop></linearGradient><linearGradient id="SvgjsLinearGradient1024"><stop id="SvgjsStop1025" stop-color="#905e26" offset="0"></stop><stop id="SvgjsStop1026" stop-color="#f5ec9b" offset="0.5"></stop><stop id="SvgjsStop1027" stop-color="#905e26" offset="1"></stop></linearGradient><linearGradient id="SvgjsLinearGradient1028"><stop id="SvgjsStop1029" stop-color="#905e26" offset="0"></stop><stop id="SvgjsStop1030" stop-color="#f5ec9b" offset="0.5"></stop><stop id="SvgjsStop1031" stop-color="#905e26" offset="1"></stop></linearGradient><linearGradient id="SvgjsLinearGradient1028"><stop id="SvgjsStop1029" stop-color="#905e26" offset="0"></stop><stop id="SvgjsStop1030" stop-color="#f5ec9b" offset="0.5"></stop><stop id="SvgjsStop1031" stop-color="#905e26" offset="1"></stop></linearGradient></defs><g id="SvgjsG1020" featurekey="monogramFeature-0" transform="matrix(3.589314920130267,0,0,3.589314920130267,109.68963319415263,-104.320043048119)" fill="url(&quot;#SvgjsLinearGradient1024&quot;)"><path d="M15.9 26.1 c-1.02 2.76 -3.24 15.3 -5.22 26.22 l-0.24 1.14 c5.58 -0.42 11.7 -0.48 16.68 -0.18 l1.74 -9.06 c1.38 -7.44 2.34 -11.82 2.88 -14.4 c0.48 -2.64 2.46 -3.96 2.34 -2.88 c0 1.02 -0.54 3.18 -2.46 12.48 c-0.66 3.18 -1.62 8.28 -2.52 13.98 c0.36 0 0.66 0.06 1.02 0.06 c0.78 0.06 3.24 0.3 4.56 0.96 c1.14 0.66 -2.16 0.3 -4.68 0.06 c-0.36 0 -0.72 -0.06 -1.08 -0.06 l0 0.18 c-1.8 10.74 -3.72 17.04 -4.26 23.58 l-0.18 1.68 c0.6 2.22 0.84 3.3 0.72 4.14 c0 0.78 -1.02 1.74 -1.74 1.56 c-0.42 -0.06 -0.84 0 -0.66 -0.6 c0.06 -0.36 0.36 -2.7 0.54 -4.92 l-0.18 -0.66 c-1.44 -6.36 -7.92 -11.16 -14.76 -14.88 c-1.02 5.82 -1.5 9.18 -1.08 10.56 c0.54 2.52 -1.32 1.8 -1.32 0.12 c-0.12 -2.94 0.06 -5.94 0.84 -11.46 c-3.24 -1.68 -6.54 -3.12 -9.3 -4.38 c-1.86 -0.9 -3.48 -2.88 3.18 -4.5 c2.16 -0.48 4.86 -0.9 7.8 -1.2 c0 -0.18 0.06 -0.42 0.12 -0.6 l4.32 -23.46 c0.48 -2.52 1.56 -4.32 2.52 -5.22 c1.02 -0.9 0.96 0.3 0.42 1.74 z M26.94 54.36 l0 -0.12 c-5.76 -0.3 -11.64 0.12 -16.74 0.72 l-1.62 8.34 c6.6 3.6 12.6 8.22 15 13.62 c0.6 -5.88 1.86 -13.38 3.36 -22.56 z M-1.8 58.56 c2.82 1.14 5.88 2.4 8.82 3.9 c0.3 -2.04 0.72 -4.38 1.2 -7.2 c-2.52 0.36 -4.86 0.72 -6.72 1.14 c-5.22 1.2 -3.9 1.98 -3.3 2.16 z" fill="url(&quot;#SvgjsLinearGradient1024&quot;)"></path></g><g id="SvgjsG1021" featurekey="nameFeature-0" transform="matrix(1.00208126182833,0,0,1.00208126182833,-4.207938354850772,208.96331038804786)" fill="url(&quot;#SvgjsLinearGradient1028&quot;)"><path d="M21.699 12.383 l3.8867 0 l0 27.617 l-3.8867 0 l0 -12.109 l-13.574 0 l0 12.109 l-3.9258 0 l0 -27.617 l3.9258 0 l0 12.051 l13.574 0 l0 -12.051 z M58.34490234375 40 l-2.3047 -6.4453 l-12.344 0 l-2.3047 6.4453 l-4.043 0 l10.176 -27.617 l4.6875 0 l10.176 27.617 l-4.043 0 z M44.90770234375 30.1562 l9.9219 0 l-4.9609 -13.926 z M89.0346171875 40 l-7.1484 -12.422 l-3.8672 0 l0 12.422 l-3.8867 0 l0 -27.617 l9.2969 0 c5.7813 0 8.418 3.5352 8.418 7.8711 c0 3.8477 -2.2656 6.5234 -6.0547 7.168 l7.793 12.578 l-4.5508 0 z M78.0185171875 15.742 l0 8.8672 l4.8828 0 c3.5938 0 5.2148 -1.7969 5.2148 -4.4141 c0 -2.5781 -1.6211 -4.4531 -5.2148 -4.4531 l-4.8828 0 z M114.37201953125 40.37109 c-5.7617 0 -9.9805 -2.7539 -10.918 -7.4414 l3.9648 -0.9375 c0.625 3.2227 3.418 5.0781 7.0898 5.0781 c2.9492 0 5.7813 -1.2109 5.7227 -4.5313 c-0.039063 -3.2813 -3.5938 -4.1797 -7.3633 -5.2148 c-4.2773 -1.1719 -8.5547 -2.5195 -8.5547 -7.5977 c0 -5.1367 4.2383 -7.7148 9.2578 -7.7148 c4.8633 0 9.2383 2.0508 10.273 6.7969 l-3.7695 0.95703 c-0.68359 -3.0664 -3.2422 -4.4336 -6.3281 -4.4336 c-2.7734 0 -5.5273 1.2109 -5.5273 4.3555 c0 2.8516 3.0859 3.6914 6.582 4.6289 c4.3945 1.1914 9.4336 2.5586 9.4336 8.1055 c0 5.5859 -4.6875 7.9492 -9.8633 7.9492 z M154.591578125 12.383 l3.8867 0 l0 27.617 l-3.8867 0 l0 -12.109 l-13.574 0 l0 12.109 l-3.9258 0 l0 -27.617 l3.9258 0 l0 12.051 l13.574 0 l0 -12.051 z M206.1843203125 40 l-9.6875 -12.598 l-2.3828 0 l0 12.598 l-3.8867 0 l0 -27.617 l3.8867 0 l0 11.543 l2.3438 0 l9.4141 -11.543 l4.7656 0 l-10.82 13.164 l11.348 14.453 l-4.9805 0 z M232.40081640625 40.37109 c-5.7227 0 -10.156 -3.3789 -10.156 -9.6094 l0 -18.379 l3.8867 0 l0 17.832 c0 4.5508 2.7344 6.6406 6.2695 6.6406 s6.3281 -2.1094 6.3281 -6.6406 l0 -17.832 l3.8867 0 l0 18.379 c0 6.2305 -4.4531 9.6094 -10.215 9.6094 z M286.54675 40 l-3.8086 0 l-1.8164 -22.461 l-8.5352 22.461 l-2.3633 0 l-8.4766 -22.383 l-1.8555 22.383 l-3.8281 0 l2.1289 -27.617 l5.2539 0 l7.9492 20.879 l7.9883 -20.879 l5.2539 0 z M318.23162109375 40 l-2.3047 -6.4453 l-12.344 0 l-2.3047 6.4453 l-4.043 0 l10.176 -27.617 l4.6875 0 l10.176 27.617 l-4.043 0 z M304.79442109375 30.1562 l9.9219 0 l-4.9609 -13.926 z M348.9213359375 40 l-7.1484 -12.422 l-3.8672 0 l0 12.422 l-3.8867 0 l0 -27.617 l9.2969 0 c5.7813 0 8.418 3.5352 8.418 7.8711 c0 3.8477 -2.2656 6.5234 -6.0547 7.168 l7.793 12.578 l-4.5508 0 z M337.9052359375 15.742 l0 8.8672 l4.8828 0 c3.5938 0 5.2148 -1.7969 5.2148 -4.4141 c0 -2.5781 -1.6211 -4.4531 -5.2148 -4.4531 l-4.8828 0 z" fill="url(&quot;#SvgjsLinearGradient1028&quot;)"></path></g></svg>